<svg width="58" height="38" viewBox="0 0 58 38" fill="none" xmlns="http://www.w3.org/2000/svg"><path d="M6.24603 18.313H0.62793L10.603 0.646484L20.8675 18.313H15.0945H6.24603Z" fill="white"></path><path d="M18.4707 11.2078V0.646484H35.0858V11.2078C35.0858 15.4448 31.6299 18.3062 26.7783 18.3062C21.9266 18.3062 18.4707 15.4448 18.4707 11.2078Z" fill="white"></path><path d="M40.8739 18.313H35.6309V0.646484H43.8786C47.9814 0.646484 50.9563 3.20499 50.9563 6.89338C50.9563 9.06621 49.8147 10.8316 47.9352 11.8827L51.7133 18.3075H40.8739V18.313Z" fill="white"></path><path d="M57.5164 0.646484H52.2041V18.313H57.5164V0.646484Z" fill="white"></path><path d="M18.0497 27.6957C19.8436 28.4847 20.9675 30.0654 20.9675 31.9938C20.9675 34.8565 18.308 37.0185 14.7949 37.0185H0.632812V19.3574H14.6183C17.9927 19.3574 20.462 21.2682 20.462 23.8783C20.462 25.4576 19.5107 26.8781 18.0565 27.6957H18.0497Z" fill="white"></path><path d="M21.4111 29.9263V19.3555H40.6967V29.9263C40.6967 34.1688 36.6849 37.0328 31.0478 37.0328C25.4107 37.0328 21.4111 34.1715 21.4111 29.9263Z" fill="white"></path><path d="M55.5351 26.8909H56.9893V25.4296C56.9893 21.6965 54.0443 19.377 49.3055 19.377C44.6074 19.377 41.5714 21.6598 41.5714 25.1934C41.5714 27.138 42.4222 28.3942 43.5651 29.2321H41.3662V30.692C41.3662 34.5474 44.5436 37.038 49.4591 37.038C54.3515 37.038 57.5057 34.633 57.5057 30.912C57.5057 29.0053 56.6699 27.7532 55.5351 26.8909Z" fill="white"></path></svg>